<svg xmlns="http://www.w3.org/2000/svg" width="45" height="28">
    <path fill-rule="evenodd" fill="#999" d="M42.136 28H2.864C1.285 28 0 26.707 0 25.118V2.882C0 1.293 1.285 0 2.864 0h39.272C43.715 0 45 1.293 45 2.882v22.236C45 26.707 43.715 28 42.136 28zm.217-24.042H2.646v7.266h39.707V3.958zM25.78 17.749v-2.227h-7.863v2.227h2.495v6.293h2.873v-6.293h2.495zm-10.976-2.227H11.98l-3.725 8.52h2.922l.572-1.485h3.237l.572 1.485h2.97l-3.724-8.52zm16.183 7.753h1.266l1.85-3.116.025 3.883h2.617l-.025-8.52h-2.361l-2.702 4.54-2.775-4.54H26.52v8.52h2.617v-3.749l1.85 2.982zm-17.619-4.93.827 2.143H12.54l.828-2.143z"/>
</svg>
