<?xml version="1.0" encoding="utf-8"?>
<!-- Generator: Adobe Illustrator 16.0.0, SVG Export Plug-In . SVG Version: 6.00 Build 0)  -->
<!DOCTYPE svg PUBLIC "-//W3C//DTD SVG 1.1//EN" "http://www.w3.org/Graphics/SVG/1.1/DTD/svg11.dtd">
<svg version="1.1" id="Layer_1" xmlns="http://www.w3.org/2000/svg" xmlns:xlink="http://www.w3.org/1999/xlink" x="0px" y="0px"
	 width="200px" height="200px" viewBox="0 0 200 200" enable-background="new 0 0 200 200" xml:space="preserve">
<g id="_x36__2_">
	<g>
		<path fill="#FFFFFF" d="M83.405,31.702L17.797,97.309c-0.811,0.806-1.151,1.886-1.105,2.938c-0.049,1.067,0.296,2.13,1.105,2.948
			L83.404,168.8c1.512,1.513,3.979,1.513,5.489,0c1.51-1.516,1.51-3.981,0-5.496l-59.176-59.163H181.8
			c2.149,0,3.886-1.738,3.886-3.888c0-2.144-1.735-3.875-3.886-3.875H29.718l59.176-59.176c1.51-1.521,1.51-3.974,0-5.491
			C87.381,30.181,84.915,30.189,83.405,31.702z"/>
	</g>
</g>
</svg>
