<svg 
 xmlns="http://www.w3.org/2000/svg"
 xmlns:xlink="http://www.w3.org/1999/xlink"
 width="37px" height="39px">
<path fill-rule="evenodd"  fill="rgb(59, 89, 152)"
 d="M30.104,0.910 L6.403,0.910 C2.881,0.910 -0.001,3.778 -0.001,7.284 L-0.001,31.714 C-0.001,35.220 2.881,38.088 6.403,38.088 L30.104,38.088 C33.626,38.088 36.508,35.220 36.508,31.714 L36.508,7.284 C36.508,3.778 33.626,0.910 30.104,0.910 ZM25.608,9.880 L22.841,9.882 C20.671,9.882 20.251,10.909 20.251,12.414 L20.251,15.736 L25.427,15.736 L24.752,20.939 L20.251,20.939 L20.251,34.287 L14.854,34.287 L14.854,20.939 L10.342,20.939 L10.342,15.736 L14.854,15.736 L14.854,11.899 C14.854,7.447 17.586,5.022 21.576,5.022 C23.487,5.022 25.130,5.164 25.608,5.228 L25.608,9.880 Z"/>
</svg>