<svg 
 xmlns="http://www.w3.org/2000/svg"
 xmlns:xlink="http://www.w3.org/1999/xlink"
 width="38px" height="39px">
<defs>
<linearGradient id="PSgrad_0" x1="0%" x2="0%" y1="100%" y2="0%">
  <stop offset="0%" stop-color="rgb(154,58,195)" stop-opacity="1" />
  <stop offset="53%" stop-color="rgb(205,46,150)" stop-opacity="1" />
  <stop offset="96%" stop-color="rgb(255,209,106)" stop-opacity="1" />
</linearGradient>

</defs>
<path fill-rule="evenodd"  fill="rgb(203, 65, 98)"
 d="M30.899,38.088 L7.197,38.088 C3.675,38.088 0.794,35.220 0.794,31.714 L0.794,7.284 C0.794,3.778 3.675,0.910 7.197,0.910 L30.899,0.910 C34.421,0.910 37.302,3.778 37.302,7.284 L37.302,31.714 C37.302,35.220 34.421,38.088 30.899,38.088 ZM32.106,14.201 C32.043,12.834 31.821,11.900 31.496,11.082 C31.160,10.237 30.711,9.520 29.981,8.806 C29.250,8.092 28.518,7.653 27.654,7.325 C26.818,7.006 25.863,6.789 24.465,6.727 C23.063,6.664 22.616,6.649 19.048,6.649 C15.480,6.649 15.033,6.664 13.631,6.727 C12.233,6.789 11.278,7.006 10.442,7.325 C9.578,7.653 8.845,8.092 8.115,8.806 C7.385,9.520 6.936,10.237 6.600,11.082 C6.275,11.900 6.053,12.834 5.989,14.201 C5.925,15.572 5.910,16.010 5.910,19.499 C5.910,22.989 5.925,23.427 5.989,24.797 C6.053,26.165 6.275,27.099 6.600,27.916 C6.936,28.761 7.385,29.478 8.115,30.192 C8.845,30.907 9.578,31.346 10.442,31.674 C11.278,31.992 12.233,32.209 13.631,32.272 C15.033,32.334 15.480,32.349 19.048,32.349 C22.616,32.349 23.063,32.334 24.465,32.272 C25.863,32.209 26.818,31.992 27.654,31.674 C28.518,31.346 29.250,30.907 29.981,30.192 C30.711,29.478 31.160,28.761 31.496,27.916 C31.821,27.099 32.043,26.165 32.106,24.797 C32.171,23.427 32.186,22.989 32.186,19.499 C32.186,16.010 32.171,15.572 32.106,14.201 ZM29.290,27.078 C29.051,27.677 28.767,28.105 28.307,28.555 C27.847,29.005 27.409,29.283 26.796,29.516 C26.333,29.692 25.638,29.902 24.357,29.959 C22.972,30.020 22.556,30.034 19.048,30.034 C15.540,30.034 15.124,30.020 13.739,29.959 C12.458,29.902 11.763,29.692 11.300,29.516 C10.686,29.283 10.249,29.005 9.789,28.555 C9.329,28.105 9.045,27.677 8.806,27.078 C8.626,26.625 8.413,25.944 8.354,24.692 C8.291,23.337 8.277,22.930 8.277,19.499 C8.277,16.068 8.291,15.662 8.354,14.307 C8.413,13.054 8.626,12.374 8.806,11.921 C9.045,11.321 9.329,10.893 9.789,10.443 C10.249,9.994 10.686,9.715 11.300,9.482 C11.763,9.306 12.458,9.097 13.739,9.040 C15.125,8.978 15.540,8.965 19.048,8.965 C22.556,8.965 22.971,8.978 24.357,9.040 C25.638,9.097 26.333,9.306 26.796,9.482 C27.409,9.715 27.847,9.994 28.307,10.443 C28.767,10.893 29.051,11.321 29.290,11.921 C29.470,12.374 29.683,13.054 29.742,14.307 C29.805,15.662 29.819,16.068 29.819,19.499 C29.819,22.930 29.805,23.337 29.742,24.692 C29.683,25.944 29.470,26.625 29.290,27.078 ZM19.048,12.901 C15.322,12.901 12.302,15.855 12.302,19.499 C12.302,23.144 15.322,26.098 19.048,26.098 C22.774,26.098 25.794,23.144 25.794,19.499 C25.794,15.855 22.774,12.901 19.048,12.901 ZM26.061,11.098 C25.190,11.098 24.484,11.789 24.484,12.640 C24.484,13.492 25.190,14.182 26.061,14.182 C26.932,14.182 27.637,13.492 27.637,12.640 C27.637,11.789 26.932,11.098 26.061,11.098 ZM19.048,23.782 C16.630,23.782 14.668,21.865 14.668,19.499 C14.668,17.133 16.630,15.216 19.048,15.216 C21.466,15.216 23.427,17.133 23.427,19.499 C23.427,21.865 21.466,23.782 19.048,23.782 Z"/>
<path fill="url(#PSgrad_0)"
 d="M30.899,38.088 L7.197,38.088 C3.675,38.088 0.794,35.220 0.794,31.714 L0.794,7.284 C0.794,3.778 3.675,0.910 7.197,0.910 L30.899,0.910 C34.421,0.910 37.302,3.778 37.302,7.284 L37.302,31.714 C37.302,35.220 34.421,38.088 30.899,38.088 ZM32.106,14.201 C32.043,12.834 31.821,11.900 31.496,11.082 C31.160,10.237 30.711,9.520 29.981,8.806 C29.250,8.092 28.518,7.653 27.654,7.325 C26.818,7.006 25.863,6.789 24.465,6.727 C23.063,6.664 22.616,6.649 19.048,6.649 C15.480,6.649 15.033,6.664 13.631,6.727 C12.233,6.789 11.278,7.006 10.442,7.325 C9.578,7.653 8.845,8.092 8.115,8.806 C7.385,9.520 6.936,10.237 6.600,11.082 C6.275,11.900 6.053,12.834 5.989,14.201 C5.925,15.572 5.910,16.010 5.910,19.499 C5.910,22.989 5.925,23.427 5.989,24.797 C6.053,26.165 6.275,27.099 6.600,27.916 C6.936,28.761 7.385,29.478 8.115,30.192 C8.845,30.907 9.578,31.346 10.442,31.674 C11.278,31.992 12.233,32.209 13.631,32.272 C15.033,32.334 15.480,32.349 19.048,32.349 C22.616,32.349 23.063,32.334 24.465,32.272 C25.863,32.209 26.818,31.992 27.654,31.674 C28.518,31.346 29.250,30.907 29.981,30.192 C30.711,29.478 31.160,28.761 31.496,27.916 C31.821,27.099 32.043,26.165 32.106,24.797 C32.171,23.427 32.186,22.989 32.186,19.499 C32.186,16.010 32.171,15.572 32.106,14.201 ZM29.290,27.078 C29.051,27.677 28.767,28.105 28.307,28.555 C27.847,29.005 27.409,29.283 26.796,29.516 C26.333,29.692 25.638,29.902 24.357,29.959 C22.972,30.020 22.556,30.034 19.048,30.034 C15.540,30.034 15.124,30.020 13.739,29.959 C12.458,29.902 11.763,29.692 11.300,29.516 C10.686,29.283 10.249,29.005 9.789,28.555 C9.329,28.105 9.045,27.677 8.806,27.078 C8.626,26.625 8.413,25.944 8.354,24.692 C8.291,23.337 8.277,22.930 8.277,19.499 C8.277,16.068 8.291,15.662 8.354,14.307 C8.413,13.054 8.626,12.374 8.806,11.921 C9.045,11.321 9.329,10.893 9.789,10.443 C10.249,9.994 10.686,9.715 11.300,9.482 C11.763,9.306 12.458,9.097 13.739,9.040 C15.125,8.978 15.540,8.965 19.048,8.965 C22.556,8.965 22.971,8.978 24.357,9.040 C25.638,9.097 26.333,9.306 26.796,9.482 C27.409,9.715 27.847,9.994 28.307,10.443 C28.767,10.893 29.051,11.321 29.290,11.921 C29.470,12.374 29.683,13.054 29.742,14.307 C29.805,15.662 29.819,16.068 29.819,19.499 C29.819,22.930 29.805,23.337 29.742,24.692 C29.683,25.944 29.470,26.625 29.290,27.078 ZM19.048,12.901 C15.322,12.901 12.302,15.855 12.302,19.499 C12.302,23.144 15.322,26.098 19.048,26.098 C22.774,26.098 25.794,23.144 25.794,19.499 C25.794,15.855 22.774,12.901 19.048,12.901 ZM26.061,11.098 C25.190,11.098 24.484,11.789 24.484,12.640 C24.484,13.492 25.190,14.182 26.061,14.182 C26.932,14.182 27.637,13.492 27.637,12.640 C27.637,11.789 26.932,11.098 26.061,11.098 ZM19.048,23.782 C16.630,23.782 14.668,21.865 14.668,19.499 C14.668,17.133 16.630,15.216 19.048,15.216 C21.466,15.216 23.427,17.133 23.427,19.499 C23.427,21.865 21.466,23.782 19.048,23.782 Z"/>
</svg>